<?xml version="1.0" encoding="utf-8"?>
<!-- Svg Vector Icons : http://www.onlinewebfonts.com/icon -->
<!DOCTYPE svg PUBLIC "-//W3C//DTD SVG 1.1//EN" "http://www.w3.org/Graphics/SVG/1.1/DTD/svg11.dtd">
<svg version="1.1" xmlns="http://www.w3.org/2000/svg" xmlns:xlink="http://www.w3.org/1999/xlink" x="0px" y="0px" viewBox="0 0 1000 1000" enable-background="new 0 0 1000 1000" xml:space="preserve">
<symbol id="arduino" enable-background="new 0 0 1000 1000" height="1000" viewBox="0 0 1000 1000" width="1000" >
<g><path d="M636.9,352.6c0-36.1,18.3-54.2,54.8-54.2c36.1,0,54.2,18.1,54.2,54.2c0,36.1-18.1,54.2-54.2,54.2C655.2,406.8,636.9,388.7,636.9,352.6z M564.1,352.6c0,85.1,42.5,127.6,127.6,127.6c84.7,0,127-42.5,127-127.6c0-84.7-42.3-127-127-127C606.6,225.6,564.1,267.9,564.1,352.6z M864.7,494.8c0,21.8-10.9,32.6-32.6,32.6H550.7c-21.8,0-32.6-10.9-32.6-32.6V210.4c0-21.8,10.9-32.6,32.6-32.6h281.4c21.8,0,32.6,10.9,32.6,32.6V494.8z M760.4,578.1c31.1,0,46.6,15.5,46.6,46.6c0,31.1-15.5,46.6-46.6,46.6c-31.1,0-46.6-15.5-46.6-46.6C713.8,593.6,729.4,578.1,760.4,578.1z M622.4,578.1c31.1,0,46.6,15.5,46.6,46.6c0,31.1-15.5,46.6-46.6,46.6c-31.1,0-46.6-15.5-46.6-46.6C575.7,593.6,591.3,578.1,622.4,578.1z M833.3,811.7c0,12-6.2,18.1-18.6,18.1H345c-12.4,0-18.6-6-18.6-18.1v-67c0-12,6.2-18.1,18.6-18.1h469.6c12.4,0,18.6,6,18.6,18.1V811.7z M293.2,191.2c0-12,6-18.1,18.1-18.1h67c12,0,18.1,6,18.1,18.1v397.4c0,12-6,18.1-18.1,18.1h-67c-12,0-18.1-6-18.1-18.1V191.2z M204.6,588.6c0,12-6,18.1-18.1,18.1h-67c-12.4,0-18.6-6-18.6-18.1V191.2c0-12,6.2-18.1,18.6-18.1h67c12,0,18.1,6,18.1,18.1V588.6z M106.1,777.9c0-31.1,15.5-46.6,46.6-46.6s46.6,15.5,46.6,46.6s-15.5,46.6-46.6,46.6S106.1,809,106.1,777.9L106.1,777.9z M971.4,391c12.4,0,18.6-6,18.6-18.1v-74.6c0-12-6.2-18.1-18.6-18.1H944V153.9c0-61-30.3-91.5-90.9-91.5H100.9C40.3,62.4,10,92.9,10,153.9v692.2c0,61,30.3,91.5,90.9,91.5h752.2c60.6,0,90.9-30.5,90.9-91.5v-16.3h27.4c12.4,0,18.6-6,18.6-18.1V664.3c0-12.4-6.2-18.6-18.6-18.6H944v-90.3h27.4c12.4,0,18.6-6,18.6-18.1v-74.6c0-12-6.2-18.1-18.6-18.1H944V391L971.4,391L971.4,391z"/></g>
</symbol>

</svg>