<?xml version="1.0" encoding="iso-8859-1"?>
<!-- Generator: Adobe Illustrator 19.0.0, SVG Export Plug-In . SVG Version: 6.00 Build 0)  -->
<svg version="1.1" id="Capa_1" xmlns="http://www.w3.org/2000/svg" xmlns:xlink="http://www.w3.org/1999/xlink" x="0px" y="0px"
	 viewBox="0 0 512 512" style="enable-background:new 0 0 512 512;" xml:space="preserve">
	 	 <symbol id="fruit" x="0px" y="0px"
	 viewBox="0 0 512 512" style="enable-background:new 0 0 512 512;" xml:space="preserve">
<g>
	<path style="fill:#35D344;" d="M75.895,161.618c-1.367-7.561-2.051-15.247-2.051-23.016v-61.07l-25.605,25.605
		c-50.92,50.92-62.77,129.662-29.603,193.094l47.548-40.699L75.895,161.618z"/>
	<path style="fill:#35D344;" d="M173.462,125.3l7.038-38.001c-0.394-4.102-0.59-8.214-0.59-12.336V13.892l-25.605,25.605
		c-24.766,24.766-40.655,55.819-46.186,90.125c-0.052,0.044-0.101,0.096-0.154,0.141L173.462,125.3z"/>
</g>
<g>
	<path style="fill:#1DAA2B;" d="M498.108,332.09h-61.071c-4.122,0-8.235-0.197-12.336-0.59l-39.226,16.529l-3.238,56.007
		c0.045-0.053,0.097-0.102,0.141-0.154c34.306-5.531,65.359-21.42,90.125-46.186L498.108,332.09z"/>
	<path style="fill:#1DAA2B;" d="M373.397,438.156c-7.769,0-15.454-0.684-23.016-2.051l-97.93,23.609l-36.683,33.65
		c63.432,33.166,142.174,21.317,193.094-29.603l25.605-25.605H373.397z"/>
</g>
<path style="fill:#35D344;" d="M433.682,184.384l-12.092,12.092L315.525,90.409l12.092-12.092
	c41.578-41.578,110.56-78.316,169.321-78.103L512,0l-0.214,15.062C511.999,73.823,475.261,142.805,433.682,184.384z"/>
<path style="fill:#1DAA2B;" d="M421.591,196.475l-53.033-53.033L512,0l-0.214,15.062c0.212,58.761-36.526,127.743-78.104,169.322
	L421.591,196.475z"/>
<path style="fill:#FC3D3D;" d="M366.437,421.335c-91.216,91.217-224.224,93.974-296.985,21.213S-0.764,236.992,90.665,145.563
	c5.516-5.516,11.244-10.819,17.395-15.699c22.698-19.303,47.942-33.516,74.034-43.061c73.609-26.941,154.22-13.789,205.556,37.546
	c52.185,52.185,64.064,133.22,37.546,205.556c-9.545,26.092-23.757,51.336-43.061,74.034
	C377.256,410.091,371.952,415.819,366.437,421.335z"/>
<path style="fill:#BC0036;" d="M366.437,421.335c-91.216,91.217-224.224,93.974-296.985,21.213L387.65,124.35
	c52.185,52.185,64.064,133.22,37.546,205.556c-9.545,26.092-23.757,51.336-43.061,74.034
	C377.256,410.091,371.952,415.819,366.437,421.335z"/>
<path style="fill:#E4E4ED;" d="M345.224,166.776c-52.608-52.608-147.855-43.063-212.132,21.213S59.27,347.513,111.878,400.122
	s147.855,43.063,212.132-21.213S397.832,219.385,345.224,166.776z"/>
<path style="fill:#DADAEF;" d="M324.01,378.908c-64.277,64.277-159.524,73.822-212.132,21.213l233.345-233.345
	C397.832,219.385,388.287,314.632,324.01,378.908z"/>
<rect x="255.98" y="183.6" transform="matrix(-0.7071 -0.7071 0.7071 -0.7071 322.16 530.6434)" style="fill:#3F3372;" width="30" height="30"/>
<rect x="298.4" y="226.011" transform="matrix(-0.7071 -0.7071 0.7071 -0.7071 364.5868 633.038)" style="fill:#25255E;" width="30" height="30"/>
<rect x="128.708" y="310.87" transform="matrix(-0.7071 -0.7071 0.7071 -0.7071 14.8991 657.9117)" style="fill:#3F3372;" width="30" height="30"/>
<rect x="171.121" y="353.294" transform="matrix(-0.7071 -0.7071 0.7071 -0.7071 57.3047 760.3235)" style="fill:#25255E;" width="30" height="30"/>
<g>
	
		<rect x="192.343" y="204.808" transform="matrix(-0.7071 -0.7071 0.7071 -0.7071 198.528 521.8489)" style="fill:#3F3372;" width="30" height="30"/>
	
		<rect x="234.765" y="247.245" transform="matrix(-0.7071 0.7071 -0.7071 -0.7071 611.8109 271.0693)" style="fill:#3F3372;" width="30" height="30"/>
</g>
<rect x="277.193" y="289.653" transform="matrix(-0.7071 -0.7071 0.7071 -0.7071 283.3816 726.6862)" style="fill:#25255E;" width="30" height="30"/>
<g>
	
		<rect x="149.908" y="247.235" transform="matrix(-0.7071 -0.7071 0.7071 -0.7071 96.0873 564.2706)" style="fill:#3F3372;" width="30" height="30"/>
	
		<rect x="192.335" y="289.655" transform="matrix(-0.7071 0.7071 -0.7071 -0.7071 569.367 373.4708)" style="fill:#3F3372;" width="30" height="30"/>
</g>
<g>
	
		<rect x="234.758" y="332.083" transform="matrix(-0.7071 -0.7071 0.7071 -0.7071 180.9388 769.113)" style="fill:#25255E;" width="30" height="30"/>
	
		<rect x="240.068" y="260.038" transform="matrix(-0.7071 0.7071 -0.7071 -0.7071 624.6052 276.3556)" style="fill:#25255E;" width="30" height="15"/>
	
		<rect x="205.135" y="294.97" transform="matrix(0.7071 0.7071 -0.7071 0.7071 281.4611 -59.5676)" style="fill:#25255E;" width="15" height="30"/>
</g>
<g>
</g>
<g>
</g>
<g>
</g>
<g>
</g>
<g>
</g>
<g>
</g>
<g>
</g>
<g>
</g>
<g>
</g>
<g>
</g>
<g>
</g>
<g>
</g>
<g>
</g>
<g>
</g>
<g>
</g>
</symbol>
</svg>
