<?xml version="1.0" encoding="UTF-8" standalone="no"?>
<!-- Generator: Adobe Illustrator 19.0.0, SVG Export Plug-In . SVG Version: 6.00 Build 0)  -->

<svg
   xmlns:dc="http://purl.org/dc/elements/1.1/"
   xmlns:cc="http://creativecommons.org/ns#"
   xmlns:rdf="http://www.w3.org/1999/02/22-rdf-syntax-ns#"
   xmlns:svg="http://www.w3.org/2000/svg"
   xmlns="http://www.w3.org/2000/svg"
   xmlns:sodipodi="http://sodipodi.sourceforge.net/DTD/sodipodi-0.dtd"
   xmlns:inkscape="http://www.inkscape.org/namespaces/inkscape"
   version="1.1"
   id="Capa_1"
   x="0px"
   y="0px"
   viewBox="0 0 66.307 38.284001"
   xml:space="preserve"
   sodipodi:docname="fastforward.svg"
   width="66.306999"
   height="38.284"
   inkscape:version="0.92.4 (5da689c313, 2019-01-14)"><metadata
   id="metadata2940"><rdf:RDF><cc:Work
       rdf:about=""><dc:format>image/svg+xml</dc:format><dc:type
         rdf:resource="http://purl.org/dc/dcmitype/StillImage" /><dc:title></dc:title></cc:Work></rdf:RDF></metadata><defs
   id="defs2938" /><sodipodi:namedview
   pagecolor="#ffffff"
   bordercolor="#666666"
   borderopacity="1"
   objecttolerance="10"
   gridtolerance="10"
   guidetolerance="10"
   inkscape:pageopacity="0"
   inkscape:pageshadow="2"
   inkscape:window-width="1920"
   inkscape:window-height="1017"
   id="namedview2936"
   showgrid="false"
   inkscape:zoom="6.1948506"
   inkscape:cx="33.1535"
   inkscape:cy="25.510412"
   inkscape:window-x="-8"
   inkscape:window-y="-8"
   inkscape:window-maximized="1"
   inkscape:current-layer="Capa_1" />
<symbol
   id="fast_forward"
   height="35"
   viewBox="0 0 66.307 38.284001"
   width="60"
   transform="translate(0,-28.022999)">
<g
   id="g2897">
		<path
   d="M 64.702,16.355 37.120001,0.4310004 c -0.995001,-0.574 -2.221001,-0.574 -3.217,0 -0.996001,0.5739999 -1.609001,1.639 -1.609001,2.787 V 16.29 L 4.827,0.4310004 c -0.997,-0.574 -2.222,-0.574 -3.218,0 C 0.6130001,1.0050003 0,2.0700004 0,3.2180004 V 35.067 c 0,1.148 0.6130001,2.211 1.609,2.785 0.498,0.287 1.053,0.432 1.608,0.432 0.555,0 1.111,-0.145 1.609,-0.432 L 32.292,21.995 v 13.072 c 0,1.148 0.612001,2.211 1.608001,2.785 0.497999,0.287 1.054999,0.432 1.608999,0.432 0.554,0 1.111001,-0.145 1.607,-0.432 L 64.698001,21.928 c 0.996,-0.574 1.608999,-1.637 1.608999,-2.787 0.004,-1.148 -0.608999,-2.212 -1.605,-2.786 z"
   id="path2893"
   inkscape:connector-curvature="0" />
</g>
</symbol>
<symbol
   id="fast_forward_smaller"
   viewBox="0 0 66.307 38.284001"
   height="22"
   width="38"
   transform="translate(0,-28.022999)">
<g
   id="g2932">
		<path
   d="M 64.702,16.355 37.120001,0.4310004 c -0.995001,-0.574 -2.221001,-0.574 -3.217,0 -0.996001,0.5739999 -1.609001,1.639 -1.609001,2.787 V 16.29 L 4.827,0.4310004 c -0.997,-0.574 -2.222,-0.574 -3.218,0 C 0.6130001,1.0050003 0,2.0700004 0,3.2180004 V 35.067 c 0,1.148 0.6130001,2.211 1.609,2.785 0.498,0.287 1.053,0.432 1.608,0.432 0.555,0 1.111,-0.145 1.609,-0.432 L 32.292,21.995 v 13.072 c 0,1.148 0.612001,2.211 1.608001,2.785 0.497999,0.287 1.054999,0.432 1.608999,0.432 0.554,0 1.111001,-0.145 1.607,-0.432 L 64.698001,21.928 c 0.996,-0.574 1.608999,-1.637 1.608999,-2.787 0.004,-1.148 -0.608999,-2.212 -1.605,-2.786 z"
   id="path2893"
   inkscape:connector-curvature="0" />
</g>

</symbol>

</svg>